Coordinates
version=1
nRows=29
nColumns=22
inDegrees=yes

Units are S.I. units (second, meters, Newtons, ...)
If the header above contains a line with 'inDegrees', this indicates whether rotational values are in degrees (yes) or radians (no).

endheader
time	pelvis_tilt	pelvis_list	pelvis_rotation	pelvis_tx	pelvis_ty	pelvis_tz	hip_flexion_r	hip_adduction_r	hip_rotation_r	knee_angle_r	ankle_angle_r	subtalar_angle_r	hip_flexion_l	hip_adduction_l	hip_rotation_l	knee_angle_l	ankle_angle_l	subtalar_angle_l	lumbar_extension	lumbar_bending	lumbar_rotation
      1.36000000	     -0.97773166	      0.23926658	      1.70844134	     -1.14079949	      1.07005235	     -0.61409193	      3.50747959	     -1.26629152	      0.35992415	    -21.67935710	     16.27267470	      0.10871222	     -0.84242625	      2.68531134	      0.69140527	    -13.22438480	     15.48042144	     -5.41728424	     -3.21461174	     -3.04226001	     -6.14727665
      1.37000000	     -1.03391553	      0.38662205	      1.73911114	     -1.14053511	      1.06967641	     -0.61530454	      4.41033071	     -1.43700259	      0.60425657	    -23.30118344	     16.23682931	      0.33889007	     -0.79812398	      2.91757792	      0.76494657	    -13.24157798	     15.50781209	     -5.50548054	     -3.34224552	     -3.21177360	     -6.31668199
      1.38000000	     -1.03410072	      0.54583865	      1.76409669	     -1.14026395	      1.06940433	     -0.61649873	      5.30923996	     -1.61032399	      0.86969192	    -25.02068747	     16.14688096	      0.54888212	     -0.82574781	      3.16035772	      0.84148670	    -13.23621648	     15.48612283	     -5.55864486	     -3.54448225	     -3.39559136	     -6.47620836
      1.39000000	     -1.13816277	      0.63541765	      1.80207736	     -1.14006056	      1.06900922	     -0.61769927	      6.39627114	     -1.70653014	      1.12853008	    -26.85588758	     15.86006389	      0.94505070	     -0.71227691	      3.32954827	      0.89993989	    -13.27549662	     15.53528239	     -5.65335514	     -3.63202872	     -3.49641058	     -6.64272248
      1.40000000	     -1.15003882	      0.77461097	      1.82197719	     -1.13983227	      1.06876106	     -0.61886761	      7.44413432	     -1.84269372	      1.41814754	    -28.78919045	     15.52087069	      1.26871908	     -0.72063369	      3.54950346	      0.96141476	    -13.27555668	     15.50450554	     -5.69930923	     -3.83607225	     -3.65436740	     -6.78470557
      1.41000000	     -1.25154438	      0.83662515	      1.86431062	     -1.13965213	      1.06838926	     -0.62003915	      8.65918657	     -1.89248827	      1.68962331	    -30.82365633	     14.97774640	      1.80425737	     -0.60149962	      3.68513892	      1.00887768	    -13.32608033	     15.57219690	     -5.78051141	     -3.94183436	     -3.72140088	     -6.94336951
      1.42000000	     -1.30770785	      0.92933085	      1.89510818	     -1.13944218	      1.06807902	     -0.62117043	      9.88366027	     -1.96104497	      1.98422491	    -32.94306142	     14.32228998	      2.34360066	     -0.54591848	      3.85081391	      1.05345497	    -13.35316151	     15.59512724	     -5.83864760	     -4.10654285	     -3.82501047	     -7.08354099
      1.43000000	     -1.35637095	      1.02541598	      1.92519859	     -1.13919859	      1.06776657	     -0.62227089	     11.15168143	     -2.02054716	      2.28688991	    -35.12987522	     13.52392042	      2.93605485	     -0.50553002	      4.01718093	      1.09176916	    -13.37010652	     15.61961304	     -5.89323974	     -4.28283125	     -3.93330232	     -7.21280946
      1.44000000	     -1.40044013	      1.11164756	      1.96174998	     -1.13889299	      1.06744355	     -0.62334662	     12.45280397	     -2.05832970	      2.58191522	    -37.35626182	     12.57972434	      3.59802152	     -0.47725536	      4.16999649	      1.13253962	    -13.38003049	     15.64393405	     -5.94915618	     -4.46320750	     -4.03138761	     -7.32994303
      1.45000000	     -1.43102050	      1.20453630	      1.99813259	     -1.13850583	      1.06711645	     -0.62438162	     13.76363079	     -2.08570395	      2.88802501	    -39.59180293	     11.51865294	      4.27505571	     -0.47524680	      4.32632243	      1.16927793	    -13.37800197	     15.67634564	     -6.00726847	     -4.65661914	     -4.13821763	     -7.43452507
      1.46000000	     -1.44524120	      1.29742334	      2.03654518	     -1.13801431	      1.06679449	     -0.62536545	     15.06473255	     -2.08996302	      3.20825929	    -41.80358573	     10.37359682	      4.92609745	     -0.50720646	      4.47768705	      1.20197830	    -13.35567075	     15.71427942	     -6.06750027	     -4.86518049	     -4.24672524	     -7.53684760
      1.47000000	     -1.45144771	      1.37768542	      2.08093501	     -1.13738966	      1.06647215	     -0.62630072	     16.34825512	     -2.06059881	      3.52131412	    -43.95317031	      9.17612757	      5.55136411	     -0.55690095	      4.61176875	      1.24430900	    -13.33313022	     15.76120764	     -6.13376318	     -5.07105870	     -4.34370594	     -7.62083431
      1.48000000	     -1.44533940	      1.44998691	      2.12558802	     -1.13662556	      1.06616335	     -0.62717051	     17.59647832	     -1.99647575	      3.83699324	    -46.00928966	      8.00381631	      6.07043481	     -0.63966429	      4.73179279	      1.28106826	    -13.28709678	     15.81064321	     -6.20100557	     -5.28300960	     -4.43310056	     -7.69549123
      1.49000000	     -1.43399645	      1.50373651	      2.17938140	     -1.13572005	      1.06587108	     -0.62798911	     18.80203183	     -1.89130116	      4.13330023	    -47.93587169	      6.92577645	      6.46721490	     -0.74019760	      4.82787764	      1.32634177	    -13.23350344	     15.86749388	     -6.27082053	     -5.49225732	     -4.50181071	     -7.75956984
      1.50000000	     -1.41460583	      1.54122866	      2.23390789	     -1.13462878	      1.06560152	     -0.62873629	     19.95010345	     -1.74746717	      4.40732151	    -49.70682034	      6.02309157	      6.68872762	     -0.86912848	      4.90183284	      1.37290346	    -13.16393104	     15.93052521	     -6.33944411	     -5.69314794	     -4.55551487	     -7.82629309
      1.51000000	     -1.38644931	      1.56114547	      2.29375114	     -1.13337798	      1.06537777	     -0.62943015	     21.03128042	     -1.57053972	      4.64684538	    -51.29429102	      5.34694819	      6.71387837	     -1.02230267	      4.95240128	      1.42136067	    -13.08131649	     15.96386687	     -6.39791672	     -5.89511165	     -4.58787352	     -7.88752067
      1.52000000	     -1.36824195	      1.56372889	      2.36614951	     -1.13194155	      1.06515269	     -0.63009250	     22.06299261	     -1.38046865	      4.81600889	    -52.69106064	      4.95296908	      6.56320397	     -1.17588881	      4.98140702	      1.47882359	    -12.99880523	     16.03687180	     -6.46325094	     -6.06888167	     -4.60197273	     -7.95909492
      1.53000000	     -1.35390064	      1.55658302	      2.44917426	     -1.13035596	      1.06494951	     -0.63074603	     23.03536437	     -1.19017568	      4.92225859	    -53.88050604	      4.82750414	      6.23329940	     -1.33559930	      4.99845181	      1.54174991	    -12.91113490	     16.10612207	     -6.52536844	     -6.23137203	     -4.59941693	     -8.03897157
      1.54000000	     -1.34084185	      1.53530260	      2.54410918	     -1.12857871	      1.06476464	     -0.63139772	     23.94168647	     -1.01186744	      4.93994956	    -54.85720856	      4.94249999	      5.76401933	     -1.50432349	      4.99888284	      1.62040120	    -12.82535202	     16.18302599	     -6.58405075	     -6.37474001	     -4.57770965	     -8.12968598
      1.55000000	     -1.32566912	      1.50146836	      2.65383379	     -1.12665231	      1.06460474	     -0.63207528	     24.78056411	     -0.85505972	      4.87132378	    -55.61856647	      5.21427644	      5.23411609	     -1.67696161	      4.98516890	      1.70363918	    -12.75019713	     16.24439855	     -6.63284445	     -6.51376735	     -4.53318648	     -8.23147020
      1.56000000	     -1.31551803	      1.45852577	      2.76469221	     -1.12458474	      1.06445332	     -0.63275594	     25.56418659	     -0.71872514	      4.74244126	    -56.17266692	      5.56581229	      4.69650334	     -1.84986925	      4.96322816	      1.81134064	    -12.68008066	     16.30793344	     -6.67231650	     -6.63890777	     -4.47362707	     -8.32458506
      1.57000000	     -1.30675119	      1.42346336	      2.90498764	     -1.12240606	      1.06428831	     -0.63351139	     26.29179464	     -0.64837533	      4.51568086	    -56.53177228	      5.98862517	      4.24867780	     -2.00811499	      4.94935463	      1.91810380	    -12.64558694	     16.38833328	     -6.69874765	     -6.76476000	     -4.41249392	     -8.45169828
      1.58000000	     -1.32602215	      1.37509161	      3.03191047	     -1.12008785	      1.06407702	     -0.63424735	     26.99077474	     -0.58635083	      4.25779438	    -56.69485740	      6.39600386	      3.72340947	     -2.14711825	      4.92494668	      2.04370027	    -12.60464339	     16.46365267	     -6.72356323	     -6.84903668	     -4.33476913	     -8.54591915
      1.59000000	     -1.34477198	      1.32917306	      3.17964534	     -1.11766128	      1.06384188	     -0.63503420	     27.63116493	     -0.57217915	      3.93540166	    -56.67346789	      6.78607297	      3.25029582	     -2.27697239	      4.90358477	      2.17762551	    -12.59212148	     16.55473443	     -6.74475505	     -6.93604887	     -4.25141602	     -8.65899046
      1.60000000	     -1.37702539	      1.28144366	      3.33757617	     -1.11511654	      1.06355481	     -0.63584092	     28.22614520	     -0.59093279	      3.56629230	    -56.47055818	      7.12581593	      2.73175147	     -2.39135766	      4.88113252	      2.32406157	    -12.59302845	     16.65739771	     -6.77082280	     -7.00824247	     -4.16258435	     -8.77580094
      1.61000000	     -1.41874511	      1.23413036	      3.49263912	     -1.11244900	      1.06321682	     -0.63663752	     28.77131824	     -0.63221122	      3.17259233	    -56.09094946	      7.41773183	      2.15357631	     -2.49861206	      4.85824501	      2.46030671	    -12.59969549	     16.77282987	     -6.79838084	     -7.06905008	     -4.07181025	     -8.89222860
      1.62000000	     -1.47177408	      1.18402705	      3.64700401	     -1.10967069	      1.06282622	     -0.63742160	     29.26838652	     -0.68946166	      2.75454166	    -55.54014823	      7.67517616	      1.54808705	     -2.59309657	      4.83191960	      2.60084186	    -12.61943261	     16.89710487	     -6.81217201	     -7.12018368	     -3.97878805	     -8.98319142
      1.63000000	     -1.53559722	      1.12731266	      3.80058460	     -1.10676289	      1.06238061	     -0.63819462	     29.71758082	     -0.75777278	      2.31047465	    -54.82728965	      7.91736042	      1.02351498	     -2.67811427	      4.79533695	      2.71664794	    -12.64679833	     17.06382669	     -6.80970886	     -7.15889431	     -3.87337405	     -9.10154275
      1.64000000	     -1.61339922	      1.07806086	      3.92438889	     -1.10372654	      1.06187364	     -0.63888416	     30.12443489	     -0.82406089	      1.88009934	    -53.95901052	      8.18225494	      0.42320340	     -2.76018273	      4.76401034	      2.79807661	    -12.66652556	     17.22945446	     -6.78290935	     -7.18291232	     -3.78493442	     -9.16856592
